<svg width="9" height="12" viewBox="0 0 9 12" fill="none" xmlns="http://www.w3.org/2000/svg">
<g clip-path="url(#clip0_6_34)">
<path d="M0.709463 12C0.447805 11.9155 0.233561 11.7672 0.101854 11.5005C0.0263415 11.3465 0 11.1813 0 11.0047C0 8.57657 0 6.15028 0 3.72211C0 3.48736 0 3.2545 0 3.01976C0.00526829 2.55967 0.344195 2.16342 0.774439 2.10521C0.879805 2.09018 0.985171 2.08643 1.09054 2.08643C2.736 2.08643 4.38322 2.08643 6.02868 2.08643C6.34478 2.08643 6.61522 2.19347 6.81542 2.46765C6.94537 2.64605 7.00332 2.84887 7.00332 3.07798C7.00156 4.71741 7.00332 6.35685 7.00332 7.99629C7.00332 8.99159 6.99278 9.9869 7.00683 10.9822C7.01385 11.4986 6.70127 11.8874 6.33424 11.9831C6.3202 11.9869 6.3079 11.9944 6.29385 12.0019H0.709463V12ZM0.646244 7.04605C0.646244 8.33431 0.646244 9.62258 0.646244 10.9108C0.646244 10.9653 0.646244 11.0198 0.649756 11.0742C0.660293 11.2019 0.741073 11.2939 0.856976 11.3108C0.89561 11.3165 0.937756 11.3146 0.97639 11.3146C2.65873 11.3146 4.34107 11.3146 6.02342 11.3146C6.05327 11.3146 6.08137 11.3146 6.11122 11.3146C6.24293 11.3052 6.336 11.2113 6.35005 11.0723C6.35532 11.0254 6.35356 10.9784 6.35356 10.9315C6.35356 8.3437 6.35356 5.75591 6.35356 3.16812C6.35356 3.12868 6.35356 3.08924 6.35356 3.05168C6.34654 2.91835 6.28156 2.83572 6.16215 2.80004C6.11298 2.78502 6.06205 2.78126 6.01112 2.78126C4.3358 2.78126 2.66049 2.78126 0.985171 2.78126C0.941268 2.78126 0.897366 2.78502 0.85522 2.79441C0.72 2.82633 0.655024 2.90896 0.648 3.05544C0.646244 3.10614 0.646244 3.15685 0.646244 3.20755C0.646244 4.4883 0.646244 5.76718 0.646244 7.04793V7.04605Z" fill="#F18624"/>
<path d="M8.99647 4.9615C8.99647 6.27981 8.98769 7.6 8.99998 8.91831C9.0035 9.38967 8.68564 9.88169 8.12369 9.91925C7.95511 9.93052 7.80408 9.79718 7.7795 9.61314C7.75667 9.43662 7.87784 9.26573 8.04994 9.23192C8.09208 9.22441 8.13774 9.22066 8.17813 9.20376C8.27998 9.16432 8.34145 9.0892 8.34672 8.96901C8.34847 8.92206 8.34847 8.87512 8.34847 8.82817C8.34847 6.24413 8.34847 3.66197 8.34847 1.07793C8.34847 1.03099 8.34847 0.984037 8.34496 0.937089C8.33442 0.8 8.24837 0.706103 8.12018 0.692958C8.0833 0.689202 8.04642 0.689202 8.0113 0.689202C6.33247 0.689202 4.65364 0.689202 2.97481 0.689202C2.90281 0.689202 2.82906 0.68169 2.76233 0.724883C2.67452 0.781221 2.64818 0.867606 2.63413 0.969014C2.61306 1.13427 2.53403 1.2507 2.37423 1.29014C2.25657 1.31831 2.12311 1.26197 2.04759 1.15117C1.97208 1.04038 1.98262 0.912676 2.00194 0.79061C2.07569 0.33615 2.44623 0 2.87823 0C4.62203 0 6.36759 0 8.1114 0C8.60311 0 8.99472 0.418779 8.99472 0.944601C8.99472 2.28357 8.99472 3.62253 8.99472 4.95962L8.99647 4.9615Z" fill="#F18624"/>
</g>
<defs>
<clipPath id="clip0_6_34">
<rect width="9" height="12" fill="white"/>
</clipPath>
</defs>
</svg>
