<svg width="19" height="19" viewBox="0 0 19 19" fill="none" xmlns="http://www.w3.org/2000/svg">
<rect x="0.5" y="0.5" width="18" height="18" rx="9" stroke="#F18624"/>
<path d="M10.2422 11.7969H8.78906C8.79427 11.2969 8.83854 10.888 8.92188 10.5703C9.01042 10.2474 9.15365 9.95312 9.35156 9.6875C9.54948 9.42188 9.8125 9.11979 10.1406 8.78125C10.3802 8.53646 10.599 8.30729 10.7969 8.09375C11 7.875 11.1641 7.64062 11.2891 7.39062C11.4141 7.13542 11.4766 6.83073 11.4766 6.47656C11.4766 6.11719 11.4115 5.80729 11.2812 5.54688C11.1562 5.28646 10.9688 5.08594 10.7188 4.94531C10.474 4.80469 10.1693 4.73438 9.80469 4.73438C9.5026 4.73438 9.21615 4.78906 8.94531 4.89844C8.67448 5.00781 8.45573 5.17708 8.28906 5.40625C8.1224 5.63021 8.03646 5.92448 8.03125 6.28906H6.58594C6.59635 5.70052 6.74219 5.19531 7.02344 4.77344C7.3099 4.35156 7.69531 4.02865 8.17969 3.80469C8.66406 3.58073 9.20573 3.46875 9.80469 3.46875C10.4661 3.46875 11.0286 3.58854 11.4922 3.82812C11.9609 4.06771 12.3177 4.41146 12.5625 4.85938C12.8073 5.30208 12.9297 5.82812 12.9297 6.4375C12.9297 6.90625 12.8333 7.33854 12.6406 7.73438C12.4531 8.125 12.2109 8.49219 11.9141 8.83594C11.6172 9.17969 11.3021 9.50781 10.9688 9.82031C10.6823 10.0859 10.4896 10.3854 10.3906 10.7188C10.2917 11.0521 10.2422 11.4115 10.2422 11.7969ZM8.72656 14.2734C8.72656 14.0391 8.79948 13.8411 8.94531 13.6797C9.09115 13.5182 9.30208 13.4375 9.57812 13.4375C9.85938 13.4375 10.0729 13.5182 10.2188 13.6797C10.3646 13.8411 10.4375 14.0391 10.4375 14.2734C10.4375 14.4974 10.3646 14.6901 10.2188 14.8516C10.0729 15.013 9.85938 15.0938 9.57812 15.0938C9.30208 15.0938 9.09115 15.013 8.94531 14.8516C8.79948 14.6901 8.72656 14.4974 8.72656 14.2734Z" fill="#F18624"/>
</svg>
